<svg width="84" height="98" viewBox="0 0 84 98" fill="none" xmlns="http://www.w3.org/2000/svg">
<path d="M67.4078 41.0343C67.4078 42.7588 66.7269 44.3391 65.6088 45.5517C65.3554 45.9293 65.0523 46.2176 64.7094 46.3716C63.4521 47.3357 61.8569 47.9122 60.1127 47.9122C56.0925 47.9122 52.8176 44.8261 52.8176 41.0343C52.8176 37.2425 56.0925 34.1614 60.1127 34.1614C64.1329 34.1614 67.4078 37.2475 67.4078 41.0343Z" fill="#41CE84"/>
<path d="M78.564 56.9469C78.9765 57.0712 79.3989 57.2501 79.8113 57.4787C79.6921 57.2948 79.5778 57.1109 79.4684 56.927C79.1355 56.3555 78.8423 55.8089 78.6485 55.2722C77.8136 53.2794 77.6496 51.0431 77.5999 49.3186C77.5304 47.7333 77.913 46.2275 78.3056 44.7714C78.3205 44.7118 78.3404 44.6522 78.3553 44.5925C78.41 44.3838 78.4646 44.1801 78.5193 43.9763C78.0919 44.513 77.5999 44.9603 77.0533 45.2734C76.447 45.6262 75.7961 45.8001 75.1351 45.8001C74.3599 45.8001 73.5648 45.5616 72.7945 45.0845L72.7647 45.0646C71.1 43.8719 70.0912 41.735 70.0713 39.3546C70.0514 36.9493 71.0354 34.7776 72.7001 33.5402C73.5549 32.9041 74.6133 32.6506 75.6718 32.8196C76.1837 32.9041 76.6806 33.078 77.1328 33.3414C77.0185 33.1625 76.8943 32.9886 76.7651 32.8146C76.5912 32.5711 76.4123 32.3375 76.2284 32.094C75.5178 31.1548 74.7773 30.1758 74.2804 29.0228C74.1164 28.6451 73.9574 28.2525 73.7984 27.8599C73.366 26.7865 72.9188 25.6733 72.3572 24.7589C71.9597 24.088 71.5472 23.5662 71.1149 23.0096C70.9012 22.7462 70.6875 22.4679 70.4639 22.1698C69.5943 21.0069 68.7196 19.9136 67.8301 18.8898C66.6971 18.2786 65.6635 17.4735 64.7044 16.7231L64.3863 16.4696C63.9838 16.1615 63.5962 15.8534 63.2136 15.5503C61.4743 14.1638 59.9735 12.9611 58.0106 12.325C56.5596 11.9672 54.7755 12.2455 52.9766 13.1052C50.6708 14.2234 48.6533 16.4299 46.9885 19.6552C43.7733 25.564 43.0428 31.7859 43.7485 35.3392C43.9771 36.4822 44.7424 37.3717 45.5573 38.311C45.8754 38.6837 46.2083 39.0664 46.5115 39.4739C49.7813 43.4644 52.425 47.9719 49.662 53.8807C49.4434 54.3478 49.2198 54.81 48.9961 55.2771C48.047 57.255 47.068 59.2975 46.5363 61.5488C45.0703 67.1346 45.9847 72.939 48.9216 76.706C50.0447 78.1124 51.9629 78.5696 53.8165 79.0169C55.844 79.479 57.782 79.8219 59.7251 80.0555H59.7499C60.4556 80.1698 61.2208 80.2245 62.0309 80.2791C64.2472 80.4381 66.5381 80.6021 68.1084 81.939L68.1333 81.9638C68.2525 82.0682 68.3668 82.1775 68.4662 82.2968C68.5358 82.2769 68.6004 82.257 68.665 82.2371C69.8129 81.8793 70.9956 80.8109 71.9001 79.9213C74.345 77.6403 75.5625 75.0859 75.7464 71.8656C75.806 70.986 75.8756 69.9523 76.134 68.9534C72.1187 68.9385 55.4613 68.864 52.584 68.9435L51.9331 70.0468L50.8746 69.4206L51.8635 67.7508L52.1865 67.7309C53.8562 67.6266 73.2368 67.711 76.5613 67.726C76.8347 67.1495 77.2024 66.6177 77.7093 66.1655C77.5503 66.1754 77.3912 66.1804 77.2372 66.1804H77.2024C74.837 66.1357 72.8741 63.9739 72.4069 61.673C71.6466 57.9359 75.2942 55.8685 78.564 56.9469ZM65.6088 45.5517C65.3554 45.9294 65.0522 46.2176 64.7094 46.3716C63.4521 47.3357 61.8569 47.9122 60.1127 47.9122C56.0924 47.9122 52.8176 44.8261 52.8176 41.0343C52.8176 37.2425 56.0924 34.1614 60.1127 34.1614C64.1329 34.1614 67.4077 37.2475 67.4077 41.0343C67.4077 42.7588 66.7269 44.3391 65.6088 45.5517Z" fill="#D38A59"/>
<path d="M60.1127 47.4003C63.8589 47.4003 66.8959 44.5524 66.8959 41.0393C66.8959 37.5262 63.8589 34.6782 60.1127 34.6782C56.3664 34.6782 53.3295 37.5262 53.3295 41.0393C53.3295 44.5524 56.3664 47.4003 60.1127 47.4003Z" fill="white"/>
<path d="M66.2648 43.1066C66.2648 43.3402 66.2499 43.5688 66.22 43.7924C66.1306 44.4782 65.9119 45.0845 65.6088 45.5517C65.3554 45.9294 65.0522 46.2176 64.7094 46.3716C64.5205 46.4611 64.3118 46.5108 64.1031 46.5108C63.959 46.5108 63.8198 46.4909 63.6807 46.4462C63.4919 46.3866 63.313 46.2872 63.144 46.153C62.4334 45.6014 61.9414 44.4434 61.9414 43.1066C61.9414 41.2232 62.9104 39.6975 64.1031 39.6975C65.1367 39.6975 66.0014 40.8405 66.2101 42.3711C66.2449 42.6097 66.2648 42.8532 66.2648 43.1066Z" fill="#440C0A"/>
<path d="M79.548 39.295C79.6523 42.7737 76.7005 46.9084 73.0629 44.6472C69.7781 42.2916 69.7533 36.3629 73.0033 33.9527C74.7078 32.6904 77.0185 33.3016 78.2112 35.0012C79.0957 36.1591 79.5529 37.7792 79.548 39.2651V39.295Z" fill="white"/>
<path d="M83.0514 62.5626C82.5594 64.6647 79.8263 65.9965 77.7093 66.1655C77.5503 66.1754 77.3913 66.1804 77.2372 66.1804H77.2024C74.837 66.1357 72.8741 63.9739 72.407 61.673C71.6467 57.9359 75.2942 55.8685 78.564 56.9469C78.9765 57.0712 79.3989 57.2501 79.8114 57.4787C81.6997 58.5223 83.4241 60.5499 83.0514 62.5626Z" fill="#440C0A"/>
<path d="M79.2101 40.7113C79.2449 41.8593 78.5839 44.2298 77.1329 43.3352C75.821 42.3612 75.7911 38.1917 77.6447 37.8289C78.8573 37.8786 79.1852 39.5782 79.2101 40.6616V40.7113Z" fill="#440C0A"/>
<path d="M49.9354 49.2789C49.841 48.7272 49.6919 48.1955 49.4882 47.6836C49.6571 48.772 49.6223 49.8951 49.349 51.0778C49.349 51.0928 49.344 51.1077 49.3391 51.1226C49.2546 51.4853 49.1453 51.8481 49.0161 52.2208C49.0061 52.2556 48.9912 52.2855 48.9813 52.3202C48.857 52.6631 48.7129 53.006 48.5489 53.3589C48.3303 53.8211 48.1116 54.2832 47.888 54.7454C47.7389 55.0585 47.5898 55.3716 47.4358 55.6896C48.211 54.815 49.0757 53.7167 49.5875 52.4544C49.5925 52.4395 49.5975 52.4246 49.6024 52.4147C49.7466 52.0469 49.8658 51.6692 49.9354 51.2766C49.9404 51.2617 49.9453 51.2468 49.9453 51.2369C50.0596 50.6107 50.0696 49.9597 49.9354 49.2789ZM81.6997 58.2191H81.6948C81.5109 57.8961 81.3221 57.593 81.1332 57.2948C80.5816 56.4052 80.0598 55.5654 79.8014 54.8448L79.7865 54.81C79.0262 53.006 78.8771 50.9089 78.8324 49.2739C78.7628 47.8029 79.1405 46.3965 79.543 44.9106C79.712 44.2894 79.8859 43.6433 80.025 42.9774C80.0648 42.7488 80.0996 42.5152 80.1244 42.2767C80.2139 41.5661 80.2338 40.7958 80.189 39.9708V39.9559C80.1393 38.8676 79.9704 37.6749 79.6921 36.3679C79.6921 36.3629 79.6921 36.3579 79.6871 36.353C79.6424 36.1244 79.5877 35.8908 79.5331 35.6522C79.4387 35.205 79.2995 34.7925 79.1306 34.39C78.6485 33.2569 77.918 32.2928 77.2074 31.3536C76.5067 30.4292 75.8458 29.5546 75.4085 28.5358C75.2495 28.1681 75.0954 27.7854 74.9414 27.3978C74.4891 26.2746 74.0171 25.1167 73.4108 24.1278C72.9785 23.3923 72.5213 22.8108 72.079 22.2493C71.8752 21.9909 71.6616 21.7225 71.4528 21.4343C71.0255 20.8628 70.5931 20.3062 70.1608 19.7695C69.9422 19.4912 69.7185 19.2178 69.4899 18.9495C69.2017 18.5966 68.9035 18.2488 68.6054 17.9108C67.9196 17.558 67.2587 17.1107 66.6176 16.6386C66.225 16.3504 65.8424 16.0522 65.4598 15.754L65.1368 15.5006C64.7392 15.1925 64.3566 14.8843 63.9789 14.5862C62.7564 13.6121 61.5787 12.6729 60.2419 11.9523C61.0917 12.494 61.9613 13.145 62.8508 13.9004L62.8856 13.9302C64.0236 14.9042 65.1268 15.9578 66.2151 17.1008C66.7568 17.6773 67.2984 18.2736 67.8302 18.8898C68.7197 19.9136 69.5943 21.0069 70.4639 22.1698C70.6876 22.4679 70.9012 22.7462 71.1149 23.0096C71.5473 23.5662 71.9597 24.088 72.3573 24.7589C72.9188 25.6733 73.3661 26.7865 73.7984 27.8599C73.9574 28.2525 74.1164 28.6451 74.2804 29.0228C74.7774 30.1758 75.5178 31.1548 76.2284 32.094C76.4123 32.3375 76.5912 32.5711 76.7651 32.8096C76.8943 32.9886 77.0186 33.1625 77.1329 33.3414C77.1378 33.3414 77.1378 33.3464 77.1378 33.3464C77.1875 33.411 77.2322 33.4805 77.277 33.5501C77.4857 33.8632 77.6745 34.1862 77.8385 34.5192C77.8484 34.5341 77.8534 34.554 77.8634 34.5689C78.0721 34.9963 78.2361 35.4435 78.3354 35.9256C78.3702 36.0796 78.405 36.2287 78.4348 36.3778C78.4348 36.3778 78.4398 36.3877 78.4398 36.3927C78.6286 37.2574 78.7678 38.0675 78.8572 38.8228C78.9218 39.3347 78.9616 39.8217 78.9765 40.2839C78.9765 40.2839 78.9815 40.2839 78.9765 40.2889C79.0063 41.079 78.9666 41.7947 78.8622 42.4556C78.8572 42.4854 78.8523 42.5152 78.8473 42.5451C78.8423 42.6146 78.8274 42.6743 78.8175 42.7389C78.7429 43.1017 78.6535 43.4694 78.5541 43.8322C78.5442 43.8819 78.5293 43.9266 78.5193 43.9713C78.4647 44.1801 78.41 44.3838 78.3553 44.5925C78.3404 44.6522 78.3205 44.7118 78.3056 44.7714C77.913 46.2275 77.5304 47.7333 77.6 49.3186C77.6497 51.0431 77.8137 53.2794 78.6485 55.2722C78.8423 55.8089 79.1355 56.3555 79.4685 56.927C79.5778 57.1109 79.6921 57.2948 79.8114 57.4787C79.9008 57.6327 80.0002 57.7868 80.0946 57.9408C81.7594 60.6194 82.7234 62.483 80.999 63.9342C80.5766 64.2771 80.0797 64.5752 79.5579 64.8933C79.0361 65.2113 78.4994 65.5344 78.0174 65.917C77.9478 65.9667 77.8783 66.0214 77.8137 66.0761H77.8087C77.7739 66.1059 77.7391 66.1357 77.7093 66.1655C77.2024 66.6177 76.8347 67.1495 76.5614 67.726C76.3775 68.1186 76.2384 68.536 76.134 68.9534C75.8756 69.9523 75.806 70.986 75.7464 71.8656C75.5625 75.0859 74.345 77.6403 71.9001 79.9213C70.9957 80.8109 69.8129 81.8793 68.665 82.2371C68.6004 82.257 68.5358 82.2769 68.4662 82.2968C68.2426 82.3564 67.9991 82.4012 67.7357 82.431C67.4376 82.4608 67.1096 82.4757 66.7419 82.4757C66.9406 82.59 67.1295 82.7192 67.2984 82.8633L67.3283 82.8882C67.3929 82.9428 67.4525 83.0025 67.5121 83.0671C67.6761 83.236 67.8153 83.4348 67.9246 83.6485C68.1432 83.6187 68.3519 83.5839 68.5557 83.5392C68.7247 83.5044 68.8886 83.4597 69.0477 83.405C69.0874 83.3951 69.1222 83.3802 69.162 83.3652C70.5037 82.908 71.7908 81.7601 72.7499 80.8059C75.4284 78.3112 76.7701 75.4884 76.9738 71.9451C77.0931 70.1909 77.2422 68.0092 78.7529 66.906L78.7728 66.8911C79.2001 66.5531 79.6822 66.255 80.194 65.9468C80.6462 65.6686 81.1084 65.3903 81.5357 65.0623H81.5407C81.6252 65.0026 81.6997 64.943 81.7792 64.8784C84.1248 62.9104 83.0116 60.4058 81.6997 58.2191ZM49.4882 47.6836C49.6571 48.772 49.6223 49.8951 49.349 51.0778C49.349 51.0928 49.344 51.1077 49.3391 51.1226C49.2546 51.4853 49.1453 51.8481 49.0161 52.2208C49.0061 52.2556 48.9912 52.2855 48.9813 52.3202C48.857 52.6631 48.7129 53.006 48.5489 53.3589C48.3303 53.8211 48.1116 54.2832 47.888 54.7454C47.7389 55.0585 47.5898 55.3716 47.4358 55.6896C48.211 54.815 49.0757 53.7167 49.5875 52.4544C49.5925 52.4395 49.5975 52.4246 49.6024 52.4147C49.7466 52.0469 49.8658 51.6692 49.9354 51.2766C49.9404 51.2617 49.9453 51.2468 49.9453 51.2369C50.0596 50.6107 50.0696 49.9597 49.9354 49.2789C49.841 48.7272 49.6919 48.1955 49.4882 47.6836ZM49.9354 49.2789C49.841 48.7272 49.6919 48.1955 49.4882 47.6836C49.6571 48.772 49.6223 49.8951 49.349 51.0778C49.349 51.0928 49.344 51.1077 49.3391 51.1226C49.2546 51.4853 49.1453 51.8481 49.0161 52.2208C49.0061 52.2556 48.9912 52.2855 48.9813 52.3202C48.857 52.6631 48.7129 53.006 48.5489 53.3589C48.3303 53.8211 48.1116 54.2832 47.888 54.7454C47.7389 55.0585 47.5898 55.3716 47.4358 55.6896C48.211 54.815 49.0757 53.7167 49.5875 52.4544C49.5925 52.4395 49.5975 52.4246 49.6024 52.4147C49.7466 52.0469 49.8658 51.6692 49.9354 51.2766C49.9404 51.2617 49.9453 51.2468 49.9453 51.2369C50.0596 50.6107 50.0696 49.9597 49.9354 49.2789ZM49.9354 49.2789C49.841 48.7272 49.6919 48.1955 49.4882 47.6836C49.6571 48.772 49.6223 49.8951 49.349 51.0778C49.349 51.0928 49.344 51.1077 49.3391 51.1226C49.2546 51.4853 49.1453 51.8481 49.0161 52.2208C49.0061 52.2556 48.9912 52.2855 48.9813 52.3202C48.857 52.6631 48.7129 53.006 48.5489 53.3589C48.3303 53.8211 48.1116 54.2832 47.888 54.7454C47.7389 55.0585 47.5898 55.3716 47.4358 55.6896C48.211 54.815 49.0757 53.7167 49.5875 52.4544C49.5925 52.4395 49.5975 52.4246 49.6024 52.4147C49.7466 52.0469 49.8658 51.6692 49.9354 51.2766C49.9404 51.2617 49.9453 51.2468 49.9453 51.2369C50.0596 50.6107 50.0696 49.9597 49.9354 49.2789Z" fill="#440C0A"/>
<path d="M74.4693 13.0406C73.0132 11.7585 69.9571 9.66131 67.8053 8.33443C61.6284 4.57246 56.2515 1.88391 50.0497 0.994355C41.0998 -0.218224 30.9026 1.61555 21.3415 6.15775C13.9719 9.6464 10.9406 14.7204 7.92915 22.8705C5.7774 28.66 4.09278 34.0669 2.61687 39.8814C1.35465 44.9106 0.83286 49.3435 1.0217 53.4483C1.23041 56.2611 1.45403 58.1098 3.36228 60.6045C5.06181 63.0297 6.9303 65.6735 8.73916 68.2279C10.7021 70.9959 12.7296 73.8584 14.5335 76.4426C14.8167 76.8451 15.0801 77.198 15.3534 77.516C15.413 77.6005 15.4826 77.68 15.5522 77.7546C15.6963 77.9186 15.8404 78.0677 15.9845 78.2068C16.1286 78.3509 16.2777 78.4801 16.4367 78.5994C16.5262 78.669 16.6107 78.7336 16.7051 78.7982C17.2617 79.1908 17.9027 79.4741 18.7326 79.6927C27.4936 81.929 48.1713 85.2388 61.857 87.4304L65.1417 87.9571C65.3256 87.982 65.5045 88.0118 65.6734 88.0416C66.1903 88.1211 66.6624 88.1957 67.0848 88.1957C67.1792 88.1957 67.2686 88.1907 67.3581 88.1857C67.5568 88.1659 67.7407 88.1311 67.9146 88.0615C68.0786 88.0019 68.2377 87.9124 68.3867 87.7981L68.4364 87.7534C68.4911 87.6987 68.5458 87.6441 68.5905 87.5844C68.67 87.4999 68.7495 87.4055 68.8141 87.3111C68.8787 87.2266 68.9334 87.1421 68.9831 87.0527C69.3508 86.4464 69.5347 85.7208 69.5148 84.9505C69.4949 84.3939 69.3756 83.8572 69.162 83.3652C69.0775 83.1764 68.9781 82.9925 68.8638 82.8186C68.7545 82.6347 68.6203 82.4558 68.4662 82.2968C68.3669 82.1775 68.2526 82.0682 68.1333 81.9638L68.1084 81.939C66.5381 80.6021 64.2472 80.4382 62.0309 80.2791C61.2209 80.2245 60.4556 80.1698 59.7499 80.0555H59.7251C57.7821 79.8219 55.844 79.479 53.8165 79.0169C51.9629 78.5696 50.0447 78.1124 48.9216 76.706C45.9847 72.939 45.0704 67.1346 46.5363 61.5488C47.0681 59.2975 48.047 57.255 48.9962 55.2771C49.2198 54.81 49.4434 54.3478 49.6621 53.8807C52.4251 47.9719 49.7813 43.4644 46.5115 39.4739C46.2083 39.0664 45.8754 38.6837 45.5574 38.311C44.7424 37.3717 43.9771 36.4822 43.7485 35.3392C43.0428 31.7859 43.7733 25.564 46.9885 19.6551C48.6533 16.4299 50.6709 14.2234 52.9767 13.1052C54.7756 12.2455 56.5596 11.9672 58.0106 12.325C59.9736 12.9611 61.4743 14.1638 63.2136 15.5503C63.5962 15.8534 63.9839 16.1615 64.3864 16.4696L64.7044 16.7231C65.6635 17.4735 66.6971 18.2786 67.8302 18.8898C68.2476 19.1184 68.6799 19.3172 69.1321 19.4762C69.4651 19.6005 69.808 19.6999 70.1608 19.7695C70.4242 19.8241 70.6876 19.8639 70.9609 19.8837C73.1772 20.1273 75.3836 18.7706 75.9899 16.7927C76.4471 15.5055 75.9054 14.1737 74.4693 13.0406ZM74.832 16.3901L74.8221 16.42C74.3898 17.8363 72.72 18.8401 71.0801 18.6612C70.2055 18.5917 69.3856 18.3084 68.6054 17.9108C67.9196 17.558 67.2587 17.1107 66.6176 16.6386C66.225 16.3504 65.8424 16.0522 65.4598 15.754L65.1367 15.5006C64.7392 15.1925 64.3566 14.8843 63.9789 14.5862C62.7564 13.6121 61.5787 12.6729 60.2419 11.9523C59.6505 11.6342 59.0343 11.3609 58.3684 11.1472L58.3287 11.1373C56.5993 10.7 54.5072 11.0081 52.4449 11.997C49.8907 13.2394 47.6843 15.6248 45.9002 19.0787C43.6591 23.1985 41.4377 29.9869 42.5409 35.5827C42.8341 37.0388 43.7435 38.0973 44.6281 39.116C44.9362 39.4739 45.2542 39.8466 45.5325 40.2193L45.5524 40.2392C47.6147 42.7538 49.1005 45.1292 49.4881 47.6836C49.6571 48.772 49.6223 49.8951 49.349 51.0778C49.349 51.0928 49.344 51.1077 49.3391 51.1226C49.2546 51.4853 49.1453 51.8481 49.016 52.2208C49.0061 52.2556 48.9912 52.2855 48.9813 52.3202C48.857 52.6631 48.7129 53.006 48.5489 53.3589C48.3303 53.8211 48.1116 54.2832 47.888 54.7454C47.7389 55.0585 47.5898 55.3716 47.4358 55.6896C46.6109 57.4339 45.8158 59.2478 45.3437 61.2506C43.7634 67.2787 44.7374 73.3366 47.9526 77.4663C49.349 79.2107 51.5703 79.7424 53.5382 80.2145C55.6104 80.6866 57.5833 81.0345 59.571 81.273C60.3264 81.3923 61.1463 81.452 61.9414 81.5066C63.6857 81.6309 65.4796 81.7601 66.7419 82.4757C66.9406 82.59 67.1295 82.7192 67.2984 82.8633L67.3283 82.8882C67.3929 82.9428 67.4525 83.0025 67.5121 83.0671C67.6761 83.236 67.8153 83.4348 67.9246 83.6485C68.1432 84.051 68.2724 84.5132 68.2824 84.9903C68.3072 85.6811 68.0886 86.3072 67.6761 86.7644C67.6562 86.7943 67.6264 86.8241 67.6016 86.8489C67.5419 86.8887 67.4724 86.9185 67.3879 86.9384H67.3829C67.0698 87.008 66.5828 86.9384 65.8673 86.8241C65.6933 86.7992 65.5095 86.7694 65.3306 86.7396L62.0508 86.2178C53.4786 84.8412 42.1484 83.0273 32.7512 81.3178L32.6767 81.3029C27.1309 80.299 22.2658 79.325 19.0407 78.505C18.7227 78.4205 18.4344 78.3261 18.176 78.2168C18.1711 78.2168 18.1661 78.2118 18.1661 78.2118C17.8033 78.0528 17.4902 77.8689 17.1971 77.6353C17.0927 77.5558 16.9933 77.4713 16.8939 77.3769C16.4566 76.9694 16.0442 76.4426 15.5423 75.732C13.7334 73.1527 11.7059 70.2903 9.74297 67.5172C7.93412 64.9579 6.06066 62.3141 4.36112 59.8889L4.34622 59.869C2.63675 57.6427 2.44294 56.0226 2.24913 53.3738C2.06527 49.4081 2.57712 45.0945 3.80952 40.1845C5.27052 34.4098 6.94521 29.0477 9.08204 23.2979C12.0488 15.2769 14.8366 10.5956 21.8683 7.27094C29.3373 3.71769 37.1939 1.85906 44.4989 1.85906C46.3326 1.85906 48.1315 1.97833 49.8807 2.2119C55.8688 3.07164 61.1215 5.70055 67.1643 9.38302C69.6042 10.8888 72.4616 12.9065 73.6692 13.9749L73.699 13.9948C74.4047 14.5564 75.1799 15.4211 74.832 16.3901ZM49.016 52.2208C49.1651 51.868 49.2745 51.5003 49.3391 51.1226C49.2546 51.4853 49.1453 51.8481 49.016 52.2208Z" fill="#440C0A"/>
<path d="M60.1127 34.1614C56.0925 34.1614 52.8176 37.2475 52.8176 41.0343C52.8176 44.8211 56.0925 47.9122 60.1127 47.9122C61.8569 47.9122 63.4521 47.3357 64.7094 46.3716C65.0324 46.1232 65.3355 45.8498 65.6088 45.5517C66.7269 44.3391 67.4078 42.7588 67.4078 41.0343C67.4078 37.2475 64.1329 34.1614 60.1127 34.1614ZM60.1127 46.8835C56.654 46.8835 53.8413 44.2596 53.8413 41.0343C53.8413 37.809 56.654 35.1851 60.1127 35.1851C63.5714 35.1851 66.3791 37.809 66.3791 41.0343C66.3791 41.4965 66.3244 41.9437 66.2101 42.3711C65.8076 43.9962 64.6696 45.3628 63.144 46.153C62.2446 46.6201 61.2109 46.8835 60.1127 46.8835Z" fill="#440C0A"/>
<path d="M78.6336 34.7031C78.236 34.1415 77.7192 33.6744 77.1378 33.3464C77.1378 33.3464 77.1378 33.3414 77.1328 33.3414C76.6806 33.078 76.1837 32.9041 75.6718 32.8196C74.6134 32.6506 73.5549 32.9041 72.7001 33.5402C71.0354 34.7776 70.0515 36.9493 70.0713 39.3546C70.0912 41.735 71.1 43.8719 72.7647 45.0646L72.7946 45.0845C73.5648 45.5616 74.3599 45.8001 75.1351 45.8001C75.7961 45.8001 76.4471 45.6262 77.0533 45.2734C77.6 44.9603 78.0919 44.513 78.5193 43.9763C79.5082 42.724 80.1095 40.9846 80.0598 39.285V39.2651C80.0697 37.5904 79.5281 35.8808 78.6336 34.7031ZM77.5652 43.5141C77.262 43.8769 76.9142 44.1751 76.5415 44.3888C75.5426 44.9653 74.4643 44.9106 73.3511 44.2248C71.9547 43.216 71.1149 41.3921 71.1 39.3447C71.0801 37.2674 71.905 35.4038 73.3064 34.3651C73.9524 33.888 74.7127 33.7042 75.5078 33.8334C76.4073 33.9775 77.2422 34.5092 77.8037 35.3093C78.0472 35.6274 78.2559 35.9852 78.4348 36.3778C78.4348 36.3778 78.4398 36.3877 78.4398 36.3927C78.8274 37.2574 79.0411 38.2663 79.0361 39.2651V39.3397C79.0461 39.6528 79.0262 39.9708 78.9765 40.2839C78.9765 40.2839 78.9815 40.2839 78.9765 40.2889C78.8125 41.4965 78.2957 42.6693 77.5652 43.5141Z" fill="#440C0A"/>
<path d="M77.0136 67.726L77.0037 68.9584C76.9788 68.9584 76.6658 68.9584 76.134 68.9534C72.1188 68.9385 55.4614 68.864 52.5841 68.9435L51.9331 70.0468L50.8746 69.4206L51.8635 67.7508L52.1866 67.7309C53.8563 67.6266 73.2369 67.711 76.5614 67.726H77.0136Z" fill="#440C0A"/>
<path d="M69.3508 87.5447C69.1669 87.4602 68.988 87.3856 68.8141 87.3161C68.6451 87.2564 68.4762 87.2018 68.3122 87.157C68.1035 87.0974 67.8948 87.0477 67.686 87.003C67.5867 86.9831 67.4873 86.9632 67.3879 86.9433H67.3829C67.2935 86.9235 67.209 86.9036 67.1195 86.8887C67.0847 86.8837 67.045 86.8738 67.0052 86.8688C63.9193 86.3569 60.1823 85.7606 55.4713 85.0102C52.0921 84.4685 48.2806 83.8572 43.997 83.1665C39.3307 82.421 34.1079 81.2482 29.054 80.1201C24.7654 79.156 20.6955 78.2416 17.1971 77.6403C16.8641 77.5856 16.5411 77.531 16.2231 77.4813C16.1634 77.4713 16.1088 77.4614 16.0491 77.4514C15.7857 77.4067 15.5621 77.4415 15.3882 77.5061C15.3783 77.5111 15.3634 77.516 15.3534 77.521C15.2441 77.5608 15.1546 77.6154 15.0851 77.6701C15.0105 77.7248 14.941 77.7894 14.8813 77.8589C14.4689 78.3211 14.3744 79.0715 14.28 79.8567C14.2552 80.0307 14.2303 80.2046 14.2055 80.3686V80.4034C13.9322 82.1427 14.116 87.1968 16.0988 88.2702L16.1684 88.31L16.2479 88.3299C22.231 89.776 35.221 92.0322 46.6804 94.025C53.7071 95.2426 60.3413 96.3955 64.4062 97.2006C65.0374 97.3049 65.6337 97.3745 66.2151 97.3745C66.9704 97.3745 67.701 97.2552 68.4613 96.9471C70.6478 95.9979 72.1535 93.9405 72.1982 91.8334C72.238 90.0096 71.2044 88.4442 69.3508 87.5447ZM67.9792 95.8141C66.9058 96.2464 65.8921 96.2017 64.6249 95.988C60.5649 95.1879 53.9258 94.0349 46.8941 92.8124C35.5043 90.8345 22.6137 88.5932 16.6256 87.157C15.5273 86.4265 15.1397 82.421 15.413 80.6022V80.5723C15.4478 80.3885 15.4677 80.2046 15.4926 80.0157C15.5423 79.6182 15.6367 78.9026 15.7708 78.7038C15.7808 78.6839 15.7907 78.674 15.8007 78.664C15.8007 78.664 15.8156 78.664 15.8553 78.664C16.1336 78.7087 16.4169 78.7535 16.7051 78.8032C16.9138 78.8379 17.1275 78.8727 17.3461 78.9125C20.7303 79.5138 24.6611 80.3934 28.7857 81.3178C29.8243 81.5464 30.8579 81.7799 31.8965 82.0135C35.9664 82.913 40.0562 83.7827 43.8032 84.379C48.0868 85.0698 51.8983 85.6811 55.2824 86.2228C60.0431 86.9831 63.8099 87.5844 66.9058 88.1013C67.0251 88.1211 67.1344 88.146 67.2438 88.1659C67.2835 88.1758 67.3233 88.1808 67.3581 88.1907C67.9146 88.305 68.3569 88.4342 68.824 88.6529C70.2353 89.3437 71.0006 90.4618 70.9708 91.8086C70.941 93.4436 69.7285 95.0537 67.9792 95.8141Z" fill="#440C0A"/>
<path d="M70.9708 91.8086C70.941 93.4436 69.7285 95.0537 67.9793 95.8141C66.9059 96.2464 65.8921 96.2017 64.6249 95.988C60.5649 95.1879 53.9258 94.0349 46.8942 92.8124C35.5043 90.8345 22.6137 88.5932 16.6256 87.157C15.5274 86.4265 15.1398 82.421 15.4131 80.6022V80.5723C15.4479 80.3885 15.4677 80.2046 15.4926 80.0157C15.5423 79.6182 15.6367 78.9026 15.7709 78.7038C15.7808 78.6839 15.7907 78.674 15.8007 78.664C15.8007 78.664 15.8156 78.664 15.8553 78.664C16.1336 78.7087 16.4169 78.7535 16.7051 78.8032C16.9138 78.838 17.1275 78.8727 17.3462 78.9125C20.7303 79.5138 24.6611 80.3934 28.7857 81.3178C29.8243 81.5464 30.8579 81.7799 31.8965 82.0135C35.9665 82.913 40.0563 83.7827 43.8032 84.379C48.0868 85.0698 51.8983 85.6811 55.2825 86.2228C60.0431 86.9831 63.8099 87.5844 66.9059 88.1013C67.0251 88.1211 67.1345 88.146 67.2438 88.1659C67.2836 88.1758 67.3233 88.1808 67.3581 88.1907C67.9147 88.305 68.3569 88.4342 68.8241 88.6529C70.2354 89.3437 71.0007 90.4618 70.9708 91.8086Z" fill="#41CE84"/>
<path d="M74.8321 16.3901L74.8221 16.42C74.3898 17.8363 72.7201 18.8401 71.0802 18.6612C70.2056 18.5917 69.3856 18.3084 68.6054 17.9108C67.9196 17.558 67.2587 17.1107 66.6177 16.6386C66.2251 16.3504 65.8424 16.0522 65.4598 15.754L65.1368 15.5006C64.7392 15.1925 64.3566 14.8843 63.9789 14.5862C62.7564 13.6121 61.5787 12.6729 60.2419 11.9523C59.6506 11.6342 59.0344 11.3609 58.3685 11.1472L58.3287 11.1373C56.5994 10.7 54.5073 11.0081 52.445 11.997C49.8907 13.2394 47.6843 15.6248 45.9003 19.0787C43.6591 23.1985 41.4378 29.9869 42.541 35.5827C42.8342 37.0388 43.7435 38.0973 44.6281 39.1161C44.9362 39.4739 45.2542 39.8466 45.5325 40.2193L45.5524 40.2392C47.6147 42.7538 49.1006 45.1292 49.4882 47.6836C49.6571 48.772 49.6223 49.8951 49.349 51.0778C49.349 51.0928 49.3441 51.1077 49.3391 51.1226C49.2546 51.4853 49.1453 51.8481 49.0161 52.2209C49.0061 52.2556 48.9912 52.2855 48.9813 52.3202C48.8571 52.6631 48.7129 53.006 48.549 53.3589C48.3303 53.8211 48.1116 54.2832 47.888 54.7454C47.7389 55.0585 47.5899 55.3716 47.4358 55.6896C46.6109 57.4339 45.8158 59.2478 45.3437 61.2506C43.7634 67.2787 44.7374 73.3366 47.9526 77.4663C49.349 79.2107 51.5703 79.7424 53.5382 80.2145C55.6105 80.6866 57.5833 81.0345 59.5711 81.273C60.3264 81.3923 61.1464 81.452 61.9415 81.5066C63.6857 81.6309 65.4797 81.7601 66.7419 82.4757C66.9407 82.59 67.1295 82.7192 67.2985 82.8633L67.3283 82.8882C67.3929 82.9428 67.4525 83.0025 67.5121 83.0671C67.6761 83.236 67.8153 83.4348 67.9246 83.6485C68.1433 84.051 68.2725 84.5132 68.2824 84.9903C68.3072 85.6811 68.0886 86.3072 67.6761 86.7644C67.6563 86.7943 67.6264 86.8241 67.6016 86.8489C67.542 86.8887 67.4724 86.9185 67.3879 86.9384H67.3829C67.2935 86.9185 67.209 86.8986 67.1196 86.8837C67.0848 86.8787 67.045 86.8688 67.0053 86.8638C63.9193 86.352 60.1823 85.7556 55.4713 85.0052C52.0921 84.4635 48.2806 83.8523 43.997 83.1615C39.3307 82.4161 34.1079 81.2432 29.054 80.1151C24.7655 79.151 20.6955 78.2366 17.1971 77.6353C17.0927 77.5558 16.9933 77.4713 16.8939 77.3769C16.4566 76.9694 16.0442 76.4426 15.5423 75.732C13.7334 73.1527 11.7059 70.2903 9.743 67.5172C7.93414 64.9579 6.06068 62.3141 4.36115 59.8889L4.34624 59.869C2.63677 57.6427 2.44296 56.0226 2.24916 53.3738C2.06529 49.4081 2.57714 45.0945 3.80955 40.1845C5.27055 34.4098 6.94523 29.0477 9.08207 23.2979C12.0488 15.2769 14.8366 10.5956 21.8683 7.27094C29.3373 3.71769 37.1939 1.85906 44.4989 1.85906C46.3326 1.85906 48.1315 1.97833 49.8807 2.2119C55.8689 3.07164 61.1215 5.70055 67.1643 9.38302C69.6043 10.8888 72.4617 12.9065 73.6692 13.9749L73.699 13.9948C74.4047 14.5564 75.1799 15.4211 74.8321 16.3901Z" fill="#7F1911"/>
</svg>
